<!DOCTYPE svg PUBLIC "-//W3C//DTD SVG 1.1//EN" "http://www.w3.org/Graphics/SVG/1.1/DTD/svg11.dtd">
<!-- Uploaded to: SVG Repo, www.svgrepo.com, Transformed by: SVG Repo Mixer Tools -->
<svg width="89px" height="89px" viewBox="-2.4 -2.4 28.80 28.80" fill="none" xmlns="http://www.w3.org/2000/svg" stroke="#f5f5f5">
<g id="SVGRepo_bgCarrier" stroke-width="0">
<path transform="translate(-2.4, -2.4), scale(1.7999999999999998)" fill="#000000" d="M9.166.33a2.25 2.25 0 00-2.332 0l-5.25 3.182A2.25 2.25 0 00.5 5.436v5.128a2.25 2.25 0 001.084 1.924l5.25 3.182a2.25 2.25 0 002.332 0l5.25-3.182a2.25 2.25 0 001.084-1.924V5.436a2.25 2.25 0 00-1.084-1.924L9.166.33z" strokewidth="0"/>
</g>
<g id="SVGRepo_tracerCarrier" stroke-linecap="round" stroke-linejoin="round" stroke="#CCCCCC" stroke-width="0.144"> <path d="M19 9L14 14.1599C13.7429 14.4323 13.4329 14.6493 13.089 14.7976C12.7451 14.9459 12.3745 15.0225 12 15.0225C11.6255 15.0225 11.2549 14.9459 10.9109 14.7976C10.567 14.6493 10.2571 14.4323 10 14.1599L5 9" stroke="#ffffff" stroke-width="1.5" stroke-linecap="round" stroke-linejoin="round"/> </g>
<g id="SVGRepo_iconCarrier"> <path d="M19 9L14 14.1599C13.7429 14.4323 13.4329 14.6493 13.089 14.7976C12.7451 14.9459 12.3745 15.0225 12 15.0225C11.6255 15.0225 11.2549 14.9459 10.9109 14.7976C10.567 14.6493 10.2571 14.4323 10 14.1599L5 9" stroke="#ffffff" stroke-width="1.5" stroke-linecap="round" stroke-linejoin="round"/> </g>
</svg>